{
 "cells": [
  {
   "cell_type": "markdown",
   "id": "bc71c82b",
   "metadata": {},
   "source": [
    "The War of the Worlds by H. G. Wells\n",
    "\n",
    "Source https://www.gutenberg.org/ebooks/36\n",
    "\n",
    "Ref https://en.wikipedia.org/wiki/The_War_of_the_Worlds"
   ]
  },
  {
   "cell_type": "code",
   "execution_count": null,
   "id": "8e0fc48f",
   "metadata": {},
   "outputs": [],
   "source": [
    "# Concept art\n",
    "\n",
    "Summary: \n",
    "\n",
    "Genre: \n",
    "\n",
    "Background: \n",
    "\n",
    "Main charactor:\n",
    "\n",
    "Prompt:\n",
    "Main charactor + Background + Summary\n",
    "\n",
    "1890 London twilight background, large alian tripod futuristic machine invade London,\n",
    "shooting laser and burn the city\n",
    "\n",
    "1890 London twilight background,\n",
    "large alian three-legged Martian futuristic machine invade London,\n",
    "shooting laser,\n",
    "the city is burning\n",
    "--ar 3:2 --no text\n",
    "\n",
    "three-legged Martian futuristic machine invade London,\n",
    "1890 London twilight background,\n",
    "the city is burning,\n",
    "--ar 3:2 --no text\n",
    "    \n",
    "tripod alian machines invade London,\n",
    "1890 London twilight background,\n",
    "the city is burning,\n",
    "--ar 3:2 --no text\n",
    "    \n",
    "tripod alian machines futuristic chrome look,\n",
    "invade London,\n",
    "the city is burning,\n",
    "1890 London twilight and meteor in background,\n",
    "--ar 3:2 --no text\n",
    "    \n",
    "tripod alian machines futuristic look,\n",
    "invade London,\n",
    "the city is burning,\n",
    "1890 London twilight and meteor in background,\n",
    "--ar 3:2 --no text\n",
    "    \n",
    "# Part 2\n",
    "https://cdn.discordapp.com/attachments/1061651026819678260/1076398788576546906/npc_tripod_alian_machines_invade_London_1890_London_twilight_ba_eb1deaf1-a1ab-4d9b-b384-a75e1905cd27.png,\n",
    "Brain alien with tantacles emerging from the cylinder,\n",
    "man and woman in London under alien control,\n",
    "1890 London sky dusk,\n",
    "--ar 3:2 --no text\n",
    "    \n",
    "https://cdn.discordapp.com/attachments/1061651026819678260/1076398788576546906/npc_tripod_alian_machines_invade_London_1890_London_twilight_ba_eb1deaf1-a1ab-4d9b-b384-a75e1905cd27.png,\n",
    "Brain alien with tantacles emerging from the cylinder,\n",
    "a man hiding in fear,\n",
    "1890 London sky dusk,\n",
    "--ar 3:2 --no text\n",
    "\n",
    "https://cdn.discordapp.com/attachments/1061651026819678260/1076398788576546906/npc_tripod_alian_machines_invade_London_1890_London_twilight_ba_eb1deaf1-a1ab-4d9b-b384-a75e1905cd27.png,\n",
    "Martians with tantacles emerging from the cylinder,\n",
    "a man hiding in fear,\n",
    "1890 London sky dusk,\n",
    "--ar 3:2 --no text\n",
    "    \n",
    "https://cdn.discordapp.com/attachments/1061651026819678260/1076398788576546906/npc_tripod_alian_machines_invade_London_1890_London_twilight_ba_eb1deaf1-a1ab-4d9b-b384-a75e1905cd27.png,\n",
    "Martians with tantacles seizing people and tossing them into a carrier,\n",
    "a man hiding in fear,\n",
    "1890 London sky dusk,\n",
    "--ar 3:2 --no text\n",
    "    \n",
    "Martians with tantacles seizing people and tossing them into a carrier,\n",
    "a man hiding in fear,\n",
    "1890 London sky dusk,\n",
    "--ar 3:2 --no text\n",
    "    "
   ]
  },
  {
   "cell_type": "code",
   "execution_count": null,
   "id": "0229b767",
   "metadata": {},
   "outputs": [],
   "source": [
    "# Youtube description\n",
    "\n",
    "Prompt: Write title, description, and keywords of youtube video of full audiobook of the classic book \"The War of the Worlds by H. G. Wells\"\n",
    "    \n",
    "Title: The War of the Worlds by H. G. Wells: Full Audiobook - Book 1/2\n",
    "    \n",
    "Description: Experience the timeless science fiction classic \"The War of the Worlds\" by H. G. Wells in this full audiobook edition. \n",
    "Follow the story of an alien invasion that threatens the very existence of humanity, as it unfolds through the eyes of one man caught in the chaos. \n",
    "Let the immersive narration and dramatic soundscape transport you to a world of danger, excitement, and otherworldly terror.\n",
    "\n",
    "0:00:00 Chapter 1\n",
    "0:13:44 Chaptor 2\n",
    "0:21:31 Chaptor 3\n",
    "0:27:28 Chaptor 4\n",
    "0:34:13 Chaptor 5\n",
    "0:43:08 Chaptor 6\n",
    "0:48:09 Chaptor 7\n",
    "0:56:09 Chaptor 8\n",
    "1:01:57 Chaptor 9\n",
    "1:14:10 Chaptor 10\n",
    "1:26:57 Chaptor 11\n",
    "1:38:38 Chaptor 12\n",
    "2:01:48 Chaptor 13\n",
    "2:13:01 Chaptor 14\n",
    "2:35:55 Chaptor 15\n",
    "2:52:56 Chaptor 16\n",
    "3:19:20 Chaptor 17\n",
    "        \n",
    "Credits\n",
    "Text: Project Gutenberg https://www.gutenberg.org/ebooks/36\n",
    "Voice: Google Cloud Text-to-Speech\n",
    "Produced by: The Classic Narrator 2023\n",
    "    \n",
    "Keywords: The War of the Worlds, H. G. Wells, full audiobook, classic literature, science fiction, alien invasion, humanity, danger, excitement, immersive narration, dramatic soundscape, otherworldly terror, classic novel."
   ]
  },
  {
   "cell_type": "code",
   "execution_count": null,
   "id": "d58fd9ac",
   "metadata": {},
   "outputs": [],
   "source": [
    "Title: The War of the Worlds by H. G. Wells: Full Audiobook - Book 2/2\n",
    "    \n",
    "Description: Experience the timeless science fiction classic \"The War of the Worlds\" by H. G. Wells in this full audiobook edition. \n",
    "Follow the story of an alien invasion that threatens the very existence of humanity, as it unfolds through the eyes of one man caught in the chaos. \n",
    "Let the immersive narration and dramatic soundscape transport you to a world of danger, excitement, and otherworldly terror.\n",
    "\n",
    "0:00:00 Chapter 1\n",
    "0:15:13 Chaptor 2\n",
    "0:35:21 Chaptor 3\n",
    "0:46:35 Chaptor 4\n",
    "0:56:08 Chaptor 5\n",
    "1:01:51 Chaptor 6\n",
    "1:09:09 Chaptor 7\n",
    "1:41:39 Chaptor 8\n",
    "1:59:41 Chaptor 9\n",
    "2:10:25 Chaptor 10\n",
    "        \n",
    "Credits\n",
    "Text: Project Gutenberg https://www.gutenberg.org/ebooks/36\n",
    "Voice: Google Cloud Text-to-Speech\n",
    "Produced by: The Classic Narrator 2023\n"
   ]
  },
  {
   "cell_type": "code",
   "execution_count": null,
   "id": "77a554fb",
   "metadata": {},
   "outputs": [],
   "source": [
    "# Voice test\n",
    "\n",
    "from TextToAudiobook import *\n",
    "test_tta = TextToAudiobook(\"test\")\n",
    "\n",
    "\n",
    "\n",
    "text = '''\n",
    "\n",
    "xxxx\n",
    "\n",
    "'''\n",
    "\n",
    "# Test voices\n",
    "voice = texttospeech.VoiceSelectionParams(\n",
    "    language_code=\"en-GB\",\n",
    "    name=\"en-GB-Standard-B\",\n",
    ")\n",
    "\n",
    "# voice = texttospeech.VoiceSelectionParams(\n",
    "#     language_code=\"en-GB\",\n",
    "#     name=\"en-GB-Standard-A\",\n",
    "# )\n",
    "\n",
    "\n",
    "audio_config = texttospeech.AudioConfig(\n",
    "    audio_encoding=texttospeech.AudioEncoding.MP3,\n",
    "    speaking_rate=0.9\n",
    ")\n",
    "\n",
    "test_tta.synthesize_ssml(text, \"output.mp3\", voice, audio_config)\n",
    "# test_tta.synthesize_text(text, \"output.mp3\", voice, audio_config)\n",
    "\n"
   ]
  },
  {
   "cell_type": "code",
   "execution_count": 1,
   "id": "0326b8d9",
   "metadata": {},
   "outputs": [],
   "source": [
    "%load_ext autoreload\n",
    "%reload_ext autoreload\n",
    "%autoreload 2"
   ]
  },
  {
   "cell_type": "code",
   "execution_count": 2,
   "id": "c3793734",
   "metadata": {},
   "outputs": [],
   "source": [
    "# Text to script\n",
    "\n",
    "from TextToAudiobook import *\n",
    "\n",
    "folder_name = \"WarOfTheWorlds\"\n",
    "# file_name = \"36-1.txt\"\n",
    "file_name = \"36-2.txt\"\n",
    "\n",
    "test_tta = TextToAudiobook(folder_name, char_limit_per_call=2000)"
   ]
  },
  {
   "cell_type": "code",
   "execution_count": 3,
   "id": "4b63cb09",
   "metadata": {},
   "outputs": [
    {
     "name": "stdout",
     "output_type": "stream",
     "text": [
      "Clean: 2389 lines\n",
      "./WarOfTheWorlds/project_file/clean/36-2.txt\n",
      "Tag: 2389 lines\n",
      "./WarOfTheWorlds/project_file/tag/36-2.txt\n",
      "Break: 2389 lines\n",
      "./WarOfTheWorlds/project_file/break/36-2.txt\n",
      "Split: 73 files\n",
      "./WarOfTheWorlds/project_file/split/36-2_txt/\n"
     ]
    }
   ],
   "source": [
    "#1 Clean raw file and copy to clean folder\n",
    "print(test_tta.clean_txt_raw(file_name))\n",
    "\n",
    "#2 Tag speech in clean file and copy to tag folder\n",
    "print(test_tta.tag_txt_clean(file_name))\n",
    "\n",
    "#3 Mark break point by chapter and characters limit\n",
    "print(test_tta.break_txt_tag(file_name))\n",
    "\n",
    "#4 Split into files by chapter and characters break\n",
    "print(test_tta.split_txt_break(file_name))"
   ]
  },
  {
   "cell_type": "code",
   "execution_count": 6,
   "id": "750cd4eb",
   "metadata": {},
   "outputs": [
    {
     "name": "stdout",
     "output_type": "stream",
     "text": [
      "Generate audio => ./WarOfTheWorlds/project_file/audio/36-2_txt/0008_002.mp3\n",
      "Generate audio => ./WarOfTheWorlds/project_file/audio/36-2_txt/0008_003.mp3\n",
      "Generate audio => ./WarOfTheWorlds/project_file/audio/36-2_txt/0008_004.mp3\n",
      "Generate audio => ./WarOfTheWorlds/project_file/audio/36-2_txt/0008_005.mp3\n",
      "Generate audio => ./WarOfTheWorlds/project_file/audio/36-2_txt/0008_006.mp3\n",
      "Generate audio => ./WarOfTheWorlds/project_file/audio/36-2_txt/0008_007.mp3\n",
      "Generate audio => ./WarOfTheWorlds/project_file/audio/36-2_txt/0008_008.mp3\n",
      "Generate audio => ./WarOfTheWorlds/project_file/audio/36-2_txt/0008_009.mp3\n",
      "Generate audio => ./WarOfTheWorlds/project_file/audio/36-2_txt/0009_001.mp3\n",
      "Generate audio => ./WarOfTheWorlds/project_file/audio/36-2_txt/0009_002.mp3\n",
      "Generate audio => ./WarOfTheWorlds/project_file/audio/36-2_txt/0009_003.mp3\n",
      "Generate audio => ./WarOfTheWorlds/project_file/audio/36-2_txt/0009_004.mp3\n",
      "Generate audio => ./WarOfTheWorlds/project_file/audio/36-2_txt/0009_005.mp3\n",
      "Generate audio => ./WarOfTheWorlds/project_file/audio/36-2_txt/0009_006.mp3\n",
      "Generate audio => ./WarOfTheWorlds/project_file/audio/36-2_txt/0010_001.mp3\n",
      "Generate audio => ./WarOfTheWorlds/project_file/audio/36-2_txt/0010_002.mp3\n",
      "Generate audio => ./WarOfTheWorlds/project_file/audio/36-2_txt/0010_003.mp3\n",
      "Generate audio => ./WarOfTheWorlds/project_file/audio/36-2_txt/0010_004.mp3\n",
      "Synthesize: 18 files\n",
      "./WarOfTheWorlds/project_file/audio/36-2_txt/\n"
     ]
    }
   ],
   "source": [
    "# file_name = \"36-1.txt\"\n",
    "file_name = \"36-2.txt\"\n",
    "\n",
    "test_tta = TextToAudiobook(folder_name, char_limit_per_call=2000)\n",
    "\n",
    "# Split into files by chapter and characters break\n",
    "voice = texttospeech.VoiceSelectionParams(\n",
    "    language_code=\"en-GB\",\n",
    "    name=\"en-GB-Standard-B\",\n",
    ")\n",
    "\n",
    "audio_config = texttospeech.AudioConfig(\n",
    "    audio_encoding=texttospeech.AudioEncoding.MP3,\n",
    "    speaking_rate=0.8\n",
    ")\n",
    "print(test_tta.synthesize_txt_split(file_name, file_limit=50, voice=voice, audio_config=audio_config))\n"
   ]
  },
  {
   "cell_type": "code",
   "execution_count": 7,
   "id": "ab7994d6",
   "metadata": {},
   "outputs": [
    {
     "name": "stdout",
     "output_type": "stream",
     "text": [
      "Generate track list: ./WarOfTheWorlds/project_file/audio/36-2_txt/track_list.txt [total: 73 files]\n"
     ]
    },
    {
     "name": "stderr",
     "output_type": "stream",
     "text": [
      "ffmpeg version 5.1.2 Copyright (c) 2000-2022 the FFmpeg developers\n",
      "  built with Apple clang version 14.0.0 (clang-1400.0.29.102)\n",
      "  configuration: --prefix=/usr/local/Cellar/ffmpeg/5.1.2 --enable-shared --enable-pthreads --enable-version3 --cc=clang --host-cflags= --host-ldflags= --enable-ffplay --enable-gnutls --enable-gpl --enable-libaom --enable-libbluray --enable-libdav1d --enable-libmp3lame --enable-libopus --enable-librav1e --enable-librist --enable-librubberband --enable-libsnappy --enable-libsrt --enable-libtesseract --enable-libtheora --enable-libvidstab --enable-libvmaf --enable-libvorbis --enable-libvpx --enable-libwebp --enable-libx264 --enable-libx265 --enable-libxml2 --enable-libxvid --enable-lzma --enable-libfontconfig --enable-libfreetype --enable-frei0r --enable-libass --enable-libopencore-amrnb --enable-libopencore-amrwb --enable-libopenjpeg --enable-libspeex --enable-libsoxr --enable-libzmq --enable-libzimg --disable-libjack --disable-indev=jack --enable-videotoolbox\n",
      "  libavutil      57. 28.100 / 57. 28.100\n",
      "  libavcodec     59. 37.100 / 59. 37.100\n",
      "  libavformat    59. 27.100 / 59. 27.100\n",
      "  libavdevice    59.  7.100 / 59.  7.100\n",
      "  libavfilter     8. 44.100 /  8. 44.100\n",
      "  libswscale      6.  7.100 /  6.  7.100\n",
      "  libswresample   4.  7.100 /  4.  7.100\n",
      "  libpostproc    56.  6.100 / 56.  6.100\n",
      "[mp3 @ 0x7f8bfdf06240] Estimating duration from bitrate, this may be inaccurate\n",
      "Input #0, concat, from './WarOfTheWorlds/project_file/audio/36-2_txt/track_list.txt':\n",
      "  Duration: N/A, start: 0.000000, bitrate: 32 kb/s\n",
      "  Stream #0:0: Audio: mp3, 24000 Hz, mono, fltp, 32 kb/s\n",
      "Output #0, mp3, to './WarOfTheWorlds/project_file/audio/36-2_txt.mp3':\n",
      "  Metadata:\n",
      "    TSSE            : Lavf59.27.100\n",
      "  Stream #0:0: Audio: mp3, 24000 Hz, mono, fltp, 32 kb/s\n",
      "Stream mapping:\n",
      "  Stream #0:0 -> #0:0 (copy)\n",
      "Press [q] to stop, [?] for help\n",
      "[mp3 @ 0x7f8bfed04080] Estimating duration from bitrate, this may be inaccurate\n",
      "[mp3 @ 0x7f8bfe804a00] Estimating duration from bitrate, this may be inaccurate\n",
      "[mp3 @ 0x7f8bfdf05fc0] Estimating duration from bitrate, this may be inaccurate\n",
      "[mp3 @ 0x7f8bfe904e40] Estimating duration from bitrate, this may be inaccurate\n",
      "[mp3 @ 0x7f8bfdf05fc0] Estimating duration from bitrate, this may be inaccurate\n",
      "[mp3 @ 0x7f8bfea04a80] Estimating duration from bitrate, this may be inaccurate\n",
      "[mp3 @ 0x7f8bfdf06240] Estimating duration from bitrate, this may be inaccurate\n",
      "[mp3 @ 0x7f8bfdf06180] Estimating duration from bitrate, this may be inaccurate\n",
      "[mp3 @ 0x7f8bfe904fc0] Estimating duration from bitrate, this may be inaccurate\n",
      "[mp3 @ 0x7f8bfdf05fc0] Estimating duration from bitrate, this may be inaccurate\n",
      "    Last message repeated 1 times\n",
      "[mp3 @ 0x7f8bfed04080] Estimating duration from bitrate, this may be inaccurate\n",
      "[mp3 @ 0x7f8bfe904e40] Estimating duration from bitrate, this may be inaccurate\n",
      "    Last message repeated 1 times\n",
      "[mp3 @ 0x7f8bfe804a00] Estimating duration from bitrate, this may be inaccurate\n",
      "    Last message repeated 1 times\n",
      "[mp3 @ 0x7f8bfdf05fc0] Estimating duration from bitrate, this may be inaccurate\n",
      "[mp3 @ 0x7f8bfea049c0] Estimating duration from bitrate, this may be inaccurate\n",
      "[mp3 @ 0x7f8bfdf06200] Estimating duration from bitrate, this may be inaccurate\n",
      "[mp3 @ 0x7f8bfdf06180] Estimating duration from bitrate, this may be inaccurate\n",
      "[mp3 @ 0x7f8bfe804a00] Estimating duration from bitrate, this may be inaccurate\n",
      "[mp3 @ 0x7f8bfe905e40] Estimating duration from bitrate, this may be inaccurate\n",
      "[mp3 @ 0x7f8bfdf05fc0] Estimating duration from bitrate, this may be inaccurate\n",
      "    Last message repeated 1 times\n",
      "[mp3 @ 0x7f8bfe905e40] Estimating duration from bitrate, this may be inaccurate\n",
      "[mp3 @ 0x7f8bfea049c0] Estimating duration from bitrate, this may be inaccurate\n",
      "    Last message repeated 1 times\n",
      "[mp3 @ 0x7f8bfe804a00] Estimating duration from bitrate, this may be inaccurate\n",
      "[mp3 @ 0x7f8bfe905740] Estimating duration from bitrate, this may be inaccurate\n",
      "[mp3 @ 0x7f8bfdf06180] Estimating duration from bitrate, this may be inaccurate\n",
      "[mp3 @ 0x7f8bfe905740] Estimating duration from bitrate, this may be inaccurate\n",
      "[mp3 @ 0x7f8bfea049c0] Estimating duration from bitrate, this may be inaccurate\n",
      "    Last message repeated 1 times\n",
      "[mp3 @ 0x7f8bfe804a00] Estimating duration from bitrate, this may be inaccurate\n",
      "    Last message repeated 1 times\n",
      "[mp3 @ 0x7f8bfed04080] Estimating duration from bitrate, this may be inaccurate\n",
      "[mp3 @ 0x7f8bfea049c0] Estimating duration from bitrate, this may be inaccurate\n",
      "[mp3 @ 0x7f8bfe904e40] Estimating duration from bitrate, this may be inaccurate\n",
      "[mp3 @ 0x7f8bfe905740] Estimating duration from bitrate, this may be inaccurate\n",
      "[mp3 @ 0x7f8bfdf05fc0] Estimating duration from bitrate, this may be inaccurate\n",
      "    Last message repeated 1 times\n",
      "[mp3 @ 0x7f8bfe905740] Estimating duration from bitrate, this may be inaccurate\n",
      "[mp3 @ 0x7f8bfef04080] Estimating duration from bitrate, this may be inaccurate\n",
      "[mp3 @ 0x7f8bfea049c0] Estimating duration from bitrate, this may be inaccurate\n",
      "[mp3 @ 0x7f8bfea049c0] Estimating duration from bitrate, this may be inaccurate\n",
      "[mp3 @ 0x7f8bfdf05fc0] Estimating duration from bitrate, this may be inaccurate\n",
      "    Last message repeated 2 times\n",
      "[mp3 @ 0x7f8bfe804a00] Estimating duration from bitrate, this may be inaccurate\n",
      "[mp3 @ 0x7f8bfdf06200] Estimating duration from bitrate, this may be inaccurate\n",
      "[mp3 @ 0x7f8bfea049c0] Estimating duration from bitrate, this may be inaccurate\n",
      "[mp3 @ 0x7f8bfe905740] Estimating duration from bitrate, this may be inaccurate\n",
      "[mp3 @ 0x7f8bfdf05fc0] Estimating duration from bitrate, this may be inaccurate\n",
      "[mp3 @ 0x7f8bfe905fc0] Estimating duration from bitrate, this may be inaccurate\n",
      "[mp3 @ 0x7f8bfe905740] Estimating duration from bitrate, this may be inaccurate\n",
      "[mp3 @ 0x7f8bfe906000] Estimating duration from bitrate, this may be inaccurate\n",
      "[mp3 @ 0x7f8bfea049c0] Estimating duration from bitrate, this may be inaccurate\n",
      "[mp3 @ 0x7f8bfe905740] Estimating duration from bitrate, this may be inaccurate\n",
      "[mp3 @ 0x7f8bfe804a00] Estimating duration from bitrate, this may be inaccurate\n",
      "[mp3 @ 0x7f8bfe905e40] Estimating duration from bitrate, this may be inaccurate\n",
      "    Last message repeated 1 times\n",
      "[mp3 @ 0x7f8bfea04bc0] Estimating duration from bitrate, this may be inaccurate\n",
      "[mp3 @ 0x7f8bfe804a00] Estimating duration from bitrate, this may be inaccurate\n",
      "[mp3 @ 0x7f8bfe905e40] Estimating duration from bitrate, this may be inaccurate\n",
      "    Last message repeated 1 times\n",
      "[mp3 @ 0x7f8bfe804a00] Estimating duration from bitrate, this may be inaccurate\n",
      "[mp3 @ 0x7f8bfe804e40] Estimating duration from bitrate, this may be inaccurate\n"
     ]
    },
    {
     "name": "stdout",
     "output_type": "stream",
     "text": [
      "Generate full audio: ./WarOfTheWorlds/project_file/audio/36-2_txt.mp3\n",
      "./WarOfTheWorlds/project_file/audio/36-2_txt.mp3\n"
     ]
    },
    {
     "name": "stderr",
     "output_type": "stream",
     "text": [
      "[mp3 @ 0x7f8bfe905e40] Estimating duration from bitrate, this may be inaccurate\n",
      "[mp3 @ 0x7f8bfe906180] Estimating duration from bitrate, this may be inaccurate\n",
      "[mp3 @ 0x7f8bfea049c0] Estimating duration from bitrate, this may be inaccurate\n",
      "[mp3 @ 0x7f8bfe804a00] Estimating duration from bitrate, this may be inaccurate\n",
      "[mp3 @ 0x7f8bfdf05fc0] Estimating duration from bitrate, this may be inaccurate\n",
      "size=   32448kB time=02:18:26.52 bitrate=  32.0kbits/s speed=5.04e+03x    \n",
      "video:0kB audio:32447kB subtitle:0kB other streams:0kB global headers:0kB muxing overhead: 0.000713%\n"
     ]
    }
   ],
   "source": [
    "# Merge audio files => full length\n",
    "# file_name = \"36-1.txt\"\n",
    "file_name = \"36-2.txt\"\n",
    "print(test_tta.merge_audio_files(file_name))"
   ]
  },
  {
   "cell_type": "code",
   "execution_count": 9,
   "id": "b382e4e1",
   "metadata": {},
   "outputs": [
    {
     "name": "stderr",
     "output_type": "stream",
     "text": [
      "ffmpeg version 5.1.2 Copyright (c) 2000-2022 the FFmpeg developers\n",
      "  built with Apple clang version 14.0.0 (clang-1400.0.29.102)\n",
      "  configuration: --prefix=/usr/local/Cellar/ffmpeg/5.1.2 --enable-shared --enable-pthreads --enable-version3 --cc=clang --host-cflags= --host-ldflags= --enable-ffplay --enable-gnutls --enable-gpl --enable-libaom --enable-libbluray --enable-libdav1d --enable-libmp3lame --enable-libopus --enable-librav1e --enable-librist --enable-librubberband --enable-libsnappy --enable-libsrt --enable-libtesseract --enable-libtheora --enable-libvidstab --enable-libvmaf --enable-libvorbis --enable-libvpx --enable-libwebp --enable-libx264 --enable-libx265 --enable-libxml2 --enable-libxvid --enable-lzma --enable-libfontconfig --enable-libfreetype --enable-frei0r --enable-libass --enable-libopencore-amrnb --enable-libopencore-amrwb --enable-libopenjpeg --enable-libspeex --enable-libsoxr --enable-libzmq --enable-libzimg --disable-libjack --disable-indev=jack --enable-videotoolbox\n",
      "  libavutil      57. 28.100 / 57. 28.100\n",
      "  libavcodec     59. 37.100 / 59. 37.100\n",
      "  libavformat    59. 27.100 / 59. 27.100\n",
      "  libavdevice    59.  7.100 / 59.  7.100\n",
      "  libavfilter     8. 44.100 /  8. 44.100\n",
      "  libswscale      6.  7.100 /  6.  7.100\n",
      "  libswresample   4.  7.100 /  4.  7.100\n",
      "  libpostproc    56.  6.100 / 56.  6.100\n",
      "Input #0, png_pipe, from './WarOfTheWorlds/project_file/image/36-2_txt.png':\n",
      "  Duration: N/A, bitrate: N/A\n",
      "  Stream #0:0: Video: png, rgba(pc), 1280x720 [SAR 2835:2835 DAR 16:9], 25 fps, 25 tbr, 25 tbn\n",
      "Input #1, mp3, from './WarOfTheWorlds/project_file/audio/36-2_txt.mp3':\n",
      "  Metadata:\n",
      "    encoder         : Lavf59.27.100\n",
      "  Duration: 02:18:26.52, start: 0.022042, bitrate: 32 kb/s\n",
      "  Stream #1:0: Audio: mp3, 24000 Hz, mono, fltp, 32 kb/s\n",
      "Stream mapping:\n",
      "  Stream #0:0 -> #0:0 (png (native) -> h264 (libx264))\n",
      "  Stream #1:0 -> #0:1 (mp3 (mp3float) -> aac (native))\n",
      "Press [q] to stop, [?] for help\n",
      "[libx264 @ 0x7fb674905fc0] using SAR=1/1\n",
      "[libx264 @ 0x7fb674905fc0] using cpu capabilities: MMX2 SSE2Fast SSSE3 SSE4.2 AVX FMA3 BMI2 AVX2\n",
      "[libx264 @ 0x7fb674905fc0] profile High, level 3.1, 4:2:0, 8-bit\n",
      "[libx264 @ 0x7fb674905fc0] 264 - core 164 r3095 baee400 - H.264/MPEG-4 AVC codec - Copyleft 2003-2022 - http://www.videolan.org/x264.html - options: cabac=1 ref=3 deblock=1:-3:-3 analyse=0x3:0x113 me=hex subme=7 psy=1 psy_rd=2.00:0.70 mixed_ref=1 me_range=16 chroma_me=1 trellis=1 8x8dct=1 cqm=0 deadzone=21,11 fast_pskip=1 chroma_qp_offset=-4 threads=12 lookahead_threads=2 sliced_threads=0 nr=0 decimate=1 interlaced=0 bluray_compat=0 constrained_intra=0 bframes=3 b_pyramid=2 b_adapt=1 b_bias=0 direct=1 weightb=1 open_gop=0 weightp=2 keyint=250 keyint_min=25 scenecut=40 intra_refresh=0 rc_lookahead=40 rc=crf mbtree=1 crf=23.0 qcomp=0.60 qpmin=0 qpmax=69 qpstep=4 ip_ratio=1.40 aq=1:1.20\n",
      "[aac @ 0x7fb674907300] Too many bits 8192.000000 > 6144 per frame requested, clamping to max\n",
      "Output #0, mp4, to './WarOfTheWorlds/project_file/video/36-2_txt.mp4':\n",
      "  Metadata:\n",
      "    encoder         : Lavf59.27.100\n",
      "  Stream #0:0: Video: h264 (avc1 / 0x31637661), yuv420p(tv, progressive), 1280x720 [SAR 1:1 DAR 16:9], q=2-31, 25 fps, 12800 tbn\n",
      "    Metadata:\n",
      "      encoder         : Lavc59.37.100 libx264\n",
      "    Side data:\n",
      "      cpb: bitrate max/min/avg: 0/0/0 buffer size: 0 vbv_delay: N/A\n",
      "  Stream #0:1: Audio: aac (LC) (mp4a / 0x6134706D), 24000 Hz, mono, fltp, 144 kb/s\n",
      "    Metadata:\n",
      "      encoder         : Lavc59.37.100 aac\n",
      "frame=207699 fps= 97 q=28.0 size=  318720kB time=02:18:25.66 bitrate= 314.4kbits/s speed=3.88x    \r"
     ]
    },
    {
     "name": "stdout",
     "output_type": "stream",
     "text": [
      "Generate full video: ./WarOfTheWorlds/project_file/video/36-2_txt.mp4\n",
      "./WarOfTheWorlds/project_file/video/36-2_txt.mp4\n"
     ]
    },
    {
     "name": "stderr",
     "output_type": "stream",
     "text": [
      "frame=207719 fps= 97 q=-1.0 Lsize=  323893kB time=02:18:28.64 bitrate= 319.3kbits/s speed=3.88x    \n",
      "video:218272kB audio:100602kB subtitle:0kB other streams:0kB global headers:0kB muxing overhead: 1.573673%\n",
      "[libx264 @ 0x7fb674905fc0] frame I:831   Avg QP:13.81  size:191544\n",
      "[libx264 @ 0x7fb674905fc0] frame P:52345 Avg QP:14.64  size:   904\n",
      "[libx264 @ 0x7fb674905fc0] frame B:154543 Avg QP:23.33  size:   110\n",
      "[libx264 @ 0x7fb674905fc0] consecutive B-frames:  0.8%  0.0%  0.0% 99.2%\n",
      "[libx264 @ 0x7fb674905fc0] mb I  I16..4:  1.5% 62.4% 36.0%\n",
      "[libx264 @ 0x7fb674905fc0] mb P  I16..4:  0.0%  0.0%  0.0%  P16..4:  2.2%  0.2%  0.3%  0.0%  0.0%    skip:97.2%\n",
      "[libx264 @ 0x7fb674905fc0] mb B  I16..4:  0.0%  0.0%  0.0%  B16..8:  2.4%  0.0%  0.0%  direct: 0.0%  skip:97.6%  L0:61.7% L1:38.0% BI: 0.3%\n",
      "[libx264 @ 0x7fb674905fc0] 8x8 transform intra:62.4% inter:88.5%\n",
      "[libx264 @ 0x7fb674905fc0] coded y,uvDC,uvAC intra: 97.0% 98.4% 98.3% inter: 0.4% 0.0% 0.0%\n",
      "[libx264 @ 0x7fb674905fc0] i16 v,h,dc,p: 11% 16%  9% 64%\n",
      "[libx264 @ 0x7fb674905fc0] i8 v,h,dc,ddl,ddr,vr,hd,vl,hu: 20% 23% 11%  5%  7%  8%  7%  8% 11%\n",
      "[libx264 @ 0x7fb674905fc0] i4 v,h,dc,ddl,ddr,vr,hd,vl,hu: 18% 16%  9%  7% 10% 10%  9%  9% 11%\n",
      "[libx264 @ 0x7fb674905fc0] i8c dc,h,v,p: 45% 26% 18% 12%\n",
      "[libx264 @ 0x7fb674905fc0] Weighted P-Frames: Y:0.0% UV:0.0%\n",
      "[libx264 @ 0x7fb674905fc0] ref P L0: 51.7%  0.2% 45.6%  2.5%\n",
      "[libx264 @ 0x7fb674905fc0] ref B L0: 51.8% 47.6%  0.6%\n",
      "[libx264 @ 0x7fb674905fc0] ref B L1: 92.8%  7.2%\n",
      "[libx264 @ 0x7fb674905fc0] kb/s:215.20\n",
      "[aac @ 0x7fb674907300] Qavg: 65517.734\n"
     ]
    }
   ],
   "source": [
    "# Audio + Image => Video\n",
    "# file_name = \"36-1.txt\"\n",
    "file_name = \"36-2.txt\"\n",
    "print(test_tta.merge_video_file(file_name))"
   ]
  },
  {
   "cell_type": "code",
   "execution_count": 8,
   "id": "004bc195",
   "metadata": {},
   "outputs": [
    {
     "name": "stdout",
     "output_type": "stream",
     "text": [
      "0:00:00 Chapter 1\n",
      "0:15:13 Chaptor 2\n",
      "0:35:21 Chaptor 3\n",
      "0:46:35 Chaptor 4\n",
      "0:56:08 Chaptor 5\n",
      "1:01:51 Chaptor 6\n",
      "1:09:09 Chaptor 7\n",
      "1:41:39 Chaptor 8\n",
      "1:59:41 Chaptor 9\n",
      "2:10:25 Chaptor 10\n"
     ]
    }
   ],
   "source": [
    "# file_name = \"36-1.txt\"\n",
    "file_name = \"36-2.txt\"\n",
    "print(test_tta.gen_youtube_chapter_marker(file_name))"
   ]
  },
  {
   "cell_type": "code",
   "execution_count": null,
   "id": "a692882a",
   "metadata": {},
   "outputs": [],
   "source": []
  }
 ],
 "metadata": {
  "kernelspec": {
   "display_name": "Python tts env",
   "language": "python",
   "name": "tts_env"
  },
  "language_info": {
   "codemirror_mode": {
    "name": "ipython",
    "version": 3
   },
   "file_extension": ".py",
   "mimetype": "text/x-python",
   "name": "python",
   "nbconvert_exporter": "python",
   "pygments_lexer": "ipython3",
   "version": "3.9.12"
  }
 },
 "nbformat": 4,
 "nbformat_minor": 5
}
